<svg id="visual" viewBox="0 0 900 600" width="900" height="600" xmlns="http://www.w3.org/2000/svg" xmlns:xlink="http://www.w3.org/1999/xlink" version="1.1"><rect x="0" y="0" width="900" height="600" fill="#ffffff"></rect><defs><linearGradient id="grad1_0" x1="33.3%" y1="0%" x2="100%" y2="100%"><stop offset="20%" stop-color="#7c766d" stop-opacity="1"></stop><stop offset="80%" stop-color="#7c766d" stop-opacity="1"></stop></linearGradient></defs><defs><linearGradient id="grad1_1" x1="33.3%" y1="0%" x2="100%" y2="100%"><stop offset="20%" stop-color="#7c766d" stop-opacity="1"></stop><stop offset="80%" stop-color="#a6a19b" stop-opacity="1"></stop></linearGradient></defs><defs><linearGradient id="grad1_2" x1="33.3%" y1="0%" x2="100%" y2="100%"><stop offset="20%" stop-color="#d2cfcc" stop-opacity="1"></stop><stop offset="80%" stop-color="#a6a19b" stop-opacity="1"></stop></linearGradient></defs><defs><linearGradient id="grad1_3" x1="33.3%" y1="0%" x2="100%" y2="100%"><stop offset="20%" stop-color="#d2cfcc" stop-opacity="1"></stop><stop offset="80%" stop-color="#ffffff" stop-opacity="1"></stop></linearGradient></defs><defs><linearGradient id="grad2_0" x1="0%" y1="0%" x2="66.7%" y2="100%"><stop offset="20%" stop-color="#7c766d" stop-opacity="1"></stop><stop offset="80%" stop-color="#7c766d" stop-opacity="1"></stop></linearGradient></defs><defs><linearGradient id="grad2_1" x1="0%" y1="0%" x2="66.7%" y2="100%"><stop offset="20%" stop-color="#a6a19b" stop-opacity="1"></stop><stop offset="80%" stop-color="#7c766d" stop-opacity="1"></stop></linearGradient></defs><defs><linearGradient id="grad2_2" x1="0%" y1="0%" x2="66.7%" y2="100%"><stop offset="20%" stop-color="#a6a19b" stop-opacity="1"></stop><stop offset="80%" stop-color="#d2cfcc" stop-opacity="1"></stop></linearGradient></defs><defs><linearGradient id="grad2_3" x1="0%" y1="0%" x2="66.7%" y2="100%"><stop offset="20%" stop-color="#ffffff" stop-opacity="1"></stop><stop offset="80%" stop-color="#d2cfcc" stop-opacity="1"></stop></linearGradient></defs><g transform="translate(900, 0)"><path d="M0 486.7C-57.7 470 -115.4 453.3 -179.9 434.2C-244.4 415.1 -315.7 393.6 -344.2 344.2C-372.7 294.8 -358.5 217.4 -375.1 155.4C-391.7 93.4 -439.2 46.7 -486.7 0L0 0Z" fill="#e8e7e5"></path><path d="M0 365.1C-43.3 352.5 -86.5 340 -134.9 325.7C-183.3 311.3 -236.7 295.2 -258.1 258.1C-279.5 221.1 -268.8 163 -281.3 116.5C-293.8 70 -329.4 35 -365.1 0L0 0Z" fill="#bbb8b3"></path><path d="M0 243.4C-28.8 235 -57.7 226.7 -89.9 217.1C-122.2 207.6 -157.8 196.8 -172.1 172.1C-186.4 147.4 -179.2 108.7 -187.5 77.7C-195.9 46.7 -219.6 23.3 -243.4 0L0 0Z" fill="#918b84"></path><path d="M0 121.7C-14.4 117.5 -28.8 113.3 -45 108.6C-61.1 103.8 -78.9 98.4 -86 86C-93.2 73.7 -89.6 54.3 -93.8 38.8C-97.9 23.3 -109.8 11.7 -121.7 0L0 0Z" fill="#7c766d"></path></g><g transform="translate(0, 600)"><path d="M0 -486.7C47.9 -447.5 95.9 -408.3 162.6 -392.6C229.4 -376.9 315 -384.8 344.2 -344.2C373.3 -303.6 346 -214.7 360.3 -149.2C374.7 -83.8 430.7 -41.9 486.7 0L0 0Z" fill="#e8e7e5"></path><path d="M0 -365.1C35.9 -335.7 71.9 -306.3 122 -294.5C172.1 -282.7 236.3 -288.6 258.1 -258.1C280 -227.7 259.5 -161 270.2 -111.9C281 -62.9 323 -31.4 365.1 0L0 0Z" fill="#bbb8b3"></path><path d="M0 -243.4C24 -223.8 47.9 -204.2 81.3 -196.3C114.7 -188.5 157.5 -192.4 172.1 -172.1C186.7 -151.8 173 -107.3 180.2 -74.6C187.3 -41.9 215.4 -21 243.4 0L0 0Z" fill="#918b84"></path><path d="M0 -121.7C12 -111.9 24 -102.1 40.7 -98.2C57.4 -94.2 78.8 -96.2 86 -86C93.3 -75.9 86.5 -53.7 90.1 -37.3C93.7 -21 107.7 -10.5 121.7 0L0 0Z" fill="#7c766d"></path></g></svg>